<svg width="200" height="350" viewBox="0 0 200 350" xmlns="http://www.w3.org/2000/svg" fill="none" stroke="black" stroke-width="4">
    <g transform="translate(0, 40)">
    <!-- Lock shackle -->
    <path d="M50 55 A50 50 0 0 1 150 55 L150 115 L130 115 L130 55 A30 30 0 0 0 70 55 L70 155 L50 155 Z" fill="white" stroke="black" fill-rule="evenodd">
        <animateTransform
            attributeName="transform"
            begin="8s"
            dur="0.5s"
            type="translate"
            by="0 -35"
            repeatCount="once"
            fill="freeze"  />
    </path>

    <!-- Lock body -->
    <circle cx="100" cy="180" r="90" fill="white"/>

    <!-- Dial marker -->
    <polygon points="97.5,103.5 102.5,103.5 100,107" fill="black" stroke-width="1"/>

    <!-- Dial -->
    <g>
        <animateTransform
            attributeName="transform"
            begin="0s"
            dur="2s"
            type="rotate"
            from="0 100 180"
            to="135 100 180"
            repeatCount="once"
            fill="freeze" 
            id="first-rotation"/>
        <animateTransform
            attributeName="transform"
            begin="2.5"
            dur="3s"
            type="rotate"
            from="135 100 180"
            to="-135 100 180"
            repeatCount="once"
            fill="freeze" />
        <animateTransform
            attributeName="transform"
            begin="6"
            dur="2s"
            type="rotate"
            from="-135 100 180"
            to="90 100 180"
            repeatCount="once"
            fill="freeze" />            


        <!-- Dial circles-->
        <circle cx="100" cy="180" r="70" fill="black" />
        <circle cx="100" cy="180" r="30" stroke="white" stroke-width="2"/>
        <text x="100" y="180">Q</text>

        <!-- Major dial ticks -->
        <g stroke-linecap="round" stroke="white">
            <!-- 0° -->
            <line x1="100" y1="112" x2="100" y2="121" />
            <!-- 45° -->
            <line x1="148.5" y1="131.5" x2="142.4" y2="137.6" />
            <!-- 90° -->
            <line x1="168" y1="180" x2="159" y2="180" />
            <!-- 135° -->
            <line x1="148.5" y1="228.5" x2="142.4" y2="222.4" />
            <!-- 180° -->
            <line x1="100" y1="248" x2="100" y2="239" />
            <!-- 225° -->
            <line x1="51.5" y1="228.5" x2="57.6" y2="222.4" />
            <!-- 270° -->
            <line x1="32" y1="180" x2="41" y2="180" />
            <!-- 315° -->
            <line x1="51.5" y1="131.5" x2="57.6" y2="137.6" />
        </g>

        <!-- Minor dial ticks -->
        <g stroke-linecap="round" stroke="white" stroke-width="2">
            <line x1="110.793978087776" y1="111.849504498935" x2="109.698936832494" y2="118.763322883101" />
            <line x1="121.322172611871" y1="114.377100375634" x2="119.159053651247" y2="121.0344959897" />
            <line x1="131.325344482029" y1="118.520549831003" x2="128.147410983852" y2="124.757595500321" />
            <line x1="140.557182408181" y1="124.177827388129" x2="136.442685642133" y2="129.840946348753" />

            <line x1="155.822172611871" y1="139.442817591819" x2="150.159053651247" y2="143.557314357867" />
            <line x1="161.479450168997" y1="148.674655517971" x2="155.242404499679" y2="151.852589016148" />
            <line x1="165.622899624366" y1="158.677827388129" x2="158.9655040103" y2="160.840946348753" />
            <line x1="168.150495501065" y1="169.206021912224" x2="161.236677116899" y2="170.301063167506" />

            <line x1="168.150495501065" y1="190.793978087776" x2="161.236677116899" y2="189.698936832494" />
            <line x1="165.622899624366" y1="201.322172611871" x2="158.9655040103" y2="199.159053651247" />
            <line x1="161.479450168997" y1="211.325344482029" x2="155.242404499679" y2="208.147410983852" />
            <line x1="155.822172611871" y1="220.557182408181" x2="150.159053651247" y2="216.442685642133" />

            <line x1="140.557182408181" y1="235.822172611871" x2="136.442685642133" y2="230.159053651247" />
            <line x1="131.325344482029" y1="241.479450168997" x2="128.147410983852" y2="235.242404499679" />
            <line x1="121.322172611871" y1="245.622899624366" x2="119.159053651247" y2="238.9655040103" />
            <line x1="110.793978087776" y1="248.150495501064" x2="109.698936832494" y2="241.236677116899" />

            <line x1="89.2060219122241" y1="248.150495501065" x2="90.3010631675057" y2="241.236677116899" />
            <line x1="78.6778273881286" y1="245.622899624366" x2="80.8409463487533" y2="238.9655040103" />
            <line x1="68.6746555179713" y1="241.479450168997" x2="71.8525890161481" y2="235.242404499679" />
            <line x1="59.4428175918194" y1="235.822172611871" x2="63.5573143578667" y2="230.159053651247" />

            <line x1="44.1778273881286" y1="220.557182408181" x2="49.8409463487533" y2="216.442685642133" />
            <line x1="38.5205498310026" y1="211.325344482029" x2="44.7575955003212" y2="208.147410983852" />
            <line x1="34.3771003756344" y1="201.322172611871" x2="41.0344959897005" y2="199.159053651247" />
            <line x1="31.8495044989355" y1="190.793978087776" x2="38.7633228831015" y2="189.698936832494" />

            <line x1="31.8495044989355" y1="169.206021912224" x2="38.7633228831015" y2="170.301063167506" />
            <line x1="34.3771003756344" y1="158.677827388129" x2="41.0344959897005" y2="160.840946348753" />
            <line x1="38.5205498310026" y1="148.674655517971" x2="44.7575955003212" y2="151.852589016148" />
            <line x1="44.1778273881286" y1="139.442817591819" x2="49.8409463487533" y2="143.557314357867" />

            <line x1="59.4428175918193" y1="124.177827388129" x2="63.5573143578667" y2="129.840946348753" />
            <line x1="68.6746555179713" y1="118.520549831003" x2="71.8525890161481" y2="124.757595500321" />
            <line x1="78.6778273881286" y1="114.377100375634" x2="80.8409463487533" y2="121.0344959897" />
            <line x1="89.2060219122241" y1="111.849504498936" x2="90.3010631675057" y2="118.763322883101" />
        </g>
        <g fill="white" class="ionicons">
            <!-- football -->
            <svg x="92" y="128" width="16" height="16" xmlns="http://www.w3.org/2000/svg" class="ionicon" viewBox="0 0 512 512"><path d="M122.06 122.06c-44.37 44.37-66.71 100.61-78 145.28l200.6 200.56c44.67-11.25 100.91-33.59 145.28-78s66.71-100.61 78-145.28L267.34 44.1c-44.67 11.25-100.91 33.59-145.28 77.96zm256.73 256.72zM300.65 189L323 166.71A15.78 15.78 0 01345.29 189L323 211.35l11.16 11.17a15.78 15.78 0 01-22.32 22.32l-11.16-11.16L278.32 256l11.16 11.16a15.78 15.78 0 11-22.32 22.32L256 278.32l-22.32 22.33 11.16 11.16a15.78 15.78 0 11-22.32 22.32L211.35 323 189 345.29A15.78 15.78 0 01166.71 323L189 300.65l-11.16-11.17a15.78 15.78 0 0122.32-22.32l11.16 11.16L233.68 256l-11.16-11.16a15.78 15.78 0 1122.32-22.32L256 233.68l22.32-22.33-11.16-11.16a15.78 15.78 0 0122.32-22.32zM476.57 199.63c7.31-54.53 4-120.26-20-144.21s-89.68-27.3-144.21-20c-2.51.34-5.16.72-7.91 1.15l171 171c.4-2.78.78-5.43 1.12-7.94zM35.43 312.37c-7.31 54.53-4 120.26 20 144.21C72.17 473.33 109.34 480 148.84 480a387 387 0 0050.79-3.43c2.51-.34 5.16-.72 7.91-1.15l-171-171c-.39 2.79-.77 5.44-1.11 7.95z"/></svg>

            <!-- game controller -->
            <g transform="rotate(180, 100, 224)">
                <svg x="92" y="216" width="16" height="16" xmlns="http://www.w3.org/2000/svg" class="ionicon" viewBox="0 0 512 512"><path d="M483.13 245.38C461.92 149.49 430 98.31 382.65 84.33A107.13 107.13 0 00352 80c-13.71 0-25.65 3.34-38.28 6.88C298.5 91.15 281.21 96 256 96s-42.51-4.84-57.76-9.11C185.6 83.34 173.67 80 160 80a115.74 115.74 0 00-31.73 4.32c-47.1 13.92-79 65.08-100.52 161C4.61 348.54 16 413.71 59.69 428.83a56.62 56.62 0 0018.64 3.22c29.93 0 53.93-24.93 70.33-45.34 18.53-23.1 40.22-34.82 107.34-34.82 59.95 0 84.76 8.13 106.19 34.82 13.47 16.78 26.2 28.52 38.9 35.91 16.89 9.82 33.77 12 50.16 6.37 25.82-8.81 40.62-32.1 44-69.24 2.57-28.48-1.39-65.89-12.12-114.37zM208 240h-32v32a16 16 0 01-32 0v-32h-32a16 16 0 010-32h32v-32a16 16 0 0132 0v32h32a16 16 0 010 32zm84 4a20 20 0 1120-20 20 20 0 01-20 20zm44 44a20 20 0 1120-19.95A20 20 0 01336 288zm0-88a20 20 0 1120-20 20 20 0 01-20 20zm44 44a20 20 0 1120-20 20 20 0 01-20 20z"/></svg>
            </g>

            <!-- storm -->
            <g transform="rotate(-90, 56, 180)">
                <svg x="48" y="172" width="16" height="16" xmlns="http://www.w3.org/2000/svg" class="ionicon" viewBox="0 0 512 512"><path d="M96 416a16 16 0 01-14.3-23.16l24-48a16 16 0 0128.62 14.32l-24 48A16 16 0 0196 416zM120 480a16 16 0 01-14.3-23.16l16-32a16 16 0 0128.62 14.32l-16 32A16 16 0 01120 480zM376 416a16 16 0 01-14.3-23.16l24-48a16 16 0 0128.62 14.32l-24 48A16 16 0 01376 416zM400 480a16 16 0 01-14.3-23.16l16-32a16 16 0 0128.62 14.32l-16 32A16 16 0 01400 480z"/><path d="M405.84 136.9a151.25 151.25 0 00-47.6-81.9 153 153 0 00-241.81 51.86C60.5 110.16 16 156.65 16 213.33 16 272.15 63.91 320 122.8 320h66.31l-12.89 77.37A16 16 0 00192 416h32v64a16 16 0 0029 9.3l80-112a16 16 0 00-13-25.3h-27.51l8-32h103.84a91.56 91.56 0 001.51-183.1z"/></svg>
            </g>

            <!-- planet -->
            <g transform="rotate(90, 144, 180)">
                <svg x="136" y="172" width="16" height="16" xmlns="http://www.w3.org/2000/svg" class="ionicon" viewBox="0 0 512 512"><path d="M96.85 286.62a8 8 0 00-12.53 8.25C102.07 373.28 172.3 432 256 432a175.31 175.31 0 0052.41-8 8 8 0 00.79-15 1120 1120 0 01-109.48-55.61 1126.24 1126.24 0 01-102.87-66.77zM492.72 339.51c-4.19-5.58-9.11-11.44-14.7-17.53a15.83 15.83 0 00-26.56 5.13c0 .16-.11.31-.17.47a15.75 15.75 0 003.15 16.06c22.74 25 26.42 38.51 25.48 41.36-2 2.23-17.05 6.89-58.15-3.53q-8.83-2.24-19.32-5.46-6.76-2.08-13.79-4.49a176.76 176.76 0 0019.54-27.25c.17-.29.35-.58.52-.88A175.39 175.39 0 00432 256a178.87 178.87 0 00-1-19c-9.57-88.17-84.4-157-175-157a175.37 175.37 0 00-106.4 35.89 177.4 177.4 0 00-45.83 51.84c-.16.29-.34.58-.51.87a175.48 175.48 0 00-13.83 30.52q-5.59-4.87-10.79-9.67c-5.39-5-10.17-9.63-14.42-14-29.57-30.26-33.09-45.61-32.16-48.45 2-2.23 15.54-5.87 48.62 1.31A15.82 15.82 0 0096.22 123l.36-.44a15.74 15.74 0 00-8.67-25.43A237.38 237.38 0 0064.13 93c-30.72-3.53-50.83 2.52-59.78 18-3.24 5.58-6.35 15.09-2.72 28.6C7 159.66 26.14 184 53.23 209.5c8.63 8.13 18.06 16.37 28.12 24.64 7.32 6 15 12.06 22.9 18.08q7.91 6 16.15 12T137.1 276c25.41 17.61 52.26 34.52 78.59 49.69q14.34 8.26 28.64 16t28.37 14.81c21.9 11 43.35 20.92 63.86 29.43q13.19 5.48 25.81 10.16c11.89 4.42 23.37 8.31 34.31 11.59l1.1.33c25.73 7.66 47.42 11.69 64.48 12H464c21.64 0 36.3-6.38 43.58-19 9.09-15.62 4.08-36.32-14.86-61.5z"/></svg>
            </g>

            <!-- gift -->
            <g transform="rotate(45, 132, 148)">
                <svg x="124" y="140" width="16" height="16" xmlns="http://www.w3.org/2000/svg" class="ionicon" viewBox="0 0 512 512"><path d="M200 144h40v-40a40 40 0 10-40 40zM352 104a40 40 0 00-80 0v40h40a40 40 0 0040-40z" fill="none"/><path d="M80 416a64 64 0 0064 64h92a4 4 0 004-4V292a4 4 0 00-4-4H88a8 8 0 00-8 8zM240 252V144h32v108a4 4 0 004 4h140a47.93 47.93 0 0016-2.75A48.09 48.09 0 00464 208v-16a48 48 0 00-48-48h-40.54a2 2 0 01-1.7-3A72 72 0 00256 58.82 72 72 0 00138.24 141a2 2 0 01-1.7 3H96a48 48 0 00-48 48v16a48.09 48.09 0 0032 45.25A47.93 47.93 0 0096 256h140a4 4 0 004-4zm32-148a40 40 0 1140 40h-40zm-74.86-39.9A40 40 0 01240 104v40h-40a40 40 0 01-2.86-79.89zM276 480h92a64 64 0 0064-64V296a8 8 0 00-8-8H276a4 4 0 00-4 4v184a4 4 0 004 4z"/></svg>
            </g>

            <!-- diamond -->
            <g transform="rotate(135, 131, 211)">
                <svg x="123" y="203" width="16" height="16" xmlns="http://www.w3.org/2000/svg" class="ionicon" viewBox="0 0 512 512"><path d="M121.72 32a4 4 0 00-3.72 5.56l2.3 5.43 40.7 94.9a4 4 0 006.88.82L243 38.4a4 4 0 00-3.2-6.4zM419.93 58.06l-41.28 96.37a4 4 0 003.68 5.57h101a4 4 0 003.4-6.11L427 57.53a4 4 0 00-7.07.53zM85 57.57l-59.71 96.32a4 4 0 003.4 6.11h101a4 4 0 003.67-5.58L92 58.1a4 4 0 00-7-.53zM393.27 32H267.82a1.94 1.94 0 00-1.56 3.11l79.92 106.46a1.94 1.94 0 003.34-.4L391.6 43l3.4-8.34a1.92 1.92 0 00-1.7-2.66zM239 448l-89.43-253.49A3.78 3.78 0 00146 192H25.7a3.72 3.72 0 00-2.95 6l216 279.81a5.06 5.06 0 006.39 1.37 5 5 0 002.39-6.08zM486.3 192H366a3.75 3.75 0 00-3.54 2.51l-98.2 278.16a5.21 5.21 0 002.42 6.31 5.22 5.22 0 006.61-1.39L489.25 198a3.72 3.72 0 00-2.95-6zM259.2 78.93l56 74.67a4 4 0 01-3.2 6.4H200a4 4 0 01-3.2-6.4l56-74.67a4 4 0 016.4 0zm-7 310.31l-67.7-191.91a4 4 0 013.77-5.33h135.46a4 4 0 013.77 5.33l-67.73 191.91a4 4 0 01-7.54 0z"/></svg>
            </g>

            <!-- key -->
            <g transform="rotate(190, 70, 212)">
                <svg x="62" y="204" width="16" height="16" xmlns="http://www.w3.org/2000/svg" class="ionicon" viewBox="0 0 512 512"><path d="M218.1 167.17c0 13 0 25.6 4.1 37.4-43.1 50.6-156.9 184.3-167.5 194.5a20.17 20.17 0 00-6.7 15c0 8.5 5.2 16.7 9.6 21.3 6.6 6.9 34.8 33 40 28 15.4-15 18.5-19 24.8-25.2 9.5-9.3-1-28.3 2.3-36s6.8-9.2 12.5-10.4 15.8 2.9 23.7 3c8.3.1 12.8-3.4 19-9.2 5-4.6 8.6-8.9 8.7-15.6.2-9-12.8-20.9-3.1-30.4s23.7 6.2 34 5 22.8-15.5 24.1-21.6-11.7-21.8-9.7-30.7c.7-3 6.8-10 11.4-11s25 6.9 29.6 5.9c5.6-1.2 12.1-7.1 17.4-10.4 15.5 6.7 29.6 9.4 47.7 9.4 68.5 0 124-53.4 124-119.2S408.5 48 340 48s-121.9 53.37-121.9 119.17zM400 144a32 32 0 11-32-32 32 32 0 0132 32z"/></svg>
            </g>

            <!-- music note -->
            <g transform="rotate(-45, 68, 148)">
                <svg x="60" y="140" width="16" height="16" xmlns="http://www.w3.org/2000/svg" class="ionicon" viewBox="0 0 512 512"><path d="M421.84 37.37a25.86 25.86 0 00-22.6-4.46L199.92 86.49A32.3 32.3 0 00176 118v226c0 6.74-4.36 12.56-11.11 14.83l-.12.05-52 18C92.88 383.53 80 402 80 423.91a55.54 55.54 0 0023.23 45.63A54.78 54.78 0 00135.34 480a55.82 55.82 0 0017.75-2.93l.38-.13 21.84-7.94A47.84 47.84 0 00208 423.91v-212c0-7.29 4.77-13.21 12.16-15.07l.21-.06L395 150.14a4 4 0 015 3.86v141.93c0 6.75-4.25 12.38-11.11 14.68l-.25.09-50.89 18.11A49.09 49.09 0 00304 375.92a55.67 55.67 0 0023.23 45.8 54.63 54.63 0 0049.88 7.35l.36-.12 21.84-7.95A47.83 47.83 0 00432 375.92V58a25.74 25.74 0 00-10.16-20.63z"/></svg>
            </g>
        </g>
    </g>
    <style>
        text {
            font-family: Cascadia Code,Arial, sans-serif;
            font-size: 48px;
            text-anchor: middle;
            dominant-baseline: middle;
            user-select: none;
            fill: white;
            stroke: white;
            stroke-width: 1;
            /* font-weight: bold; */
        }
    </style>
</svg>
