<svg width="200" height="275" viewBox="0 0 200 275" xmlns="http://www.w3.org/2000/svg" fill="none" stroke="black" stroke-width="4">
    <!-- Lock shackle -->
    <path d="M50 55 A50 50 0 0 1 150 55 L150 105 L130 95 L130 55 A30 30 0 0 0 70 55 L70 95 L50 105 Z" fill="white" stroke="black" fill-rule="evenodd" />

    <!-- Lock body -->
    <circle cx="100" cy="180" r="90" fill="white"/>

    <!-- Dial marker -->
    <polygon points="97.5,103.5 102.5,103.5 100,107" fill="black" stroke-width="1"/>

    <!-- Dial -->
    <g>
        <!-- Dial circles-->
        <circle cx="100" cy="180" r="70" fill="black" />
        <circle cx="100" cy="180" r="30" stroke="white" stroke-width="2"/>
        <text x="100" y="180">Quotiac</text>

        <!-- Major dial ticks -->
        <g stroke-linecap="round" stroke="white">
            <!-- 0° -->
            <line x1="100" y1="112" x2="100" y2="121" />
            <!-- 45° -->
            <line x1="148.5" y1="131.5" x2="142.4" y2="137.6" />
            <!-- 90° -->
            <line x1="168" y1="180" x2="159" y2="180" />
            <!-- 135° -->
            <line x1="148.5" y1="228.5" x2="142.4" y2="222.4" />
            <!-- 180° -->
            <line x1="100" y1="248" x2="100" y2="239" />
            <!-- 225° -->
            <line x1="51.5" y1="228.5" x2="57.6" y2="222.4" />
            <!-- 270° -->
            <line x1="32" y1="180" x2="41" y2="180" />
            <!-- 315° -->
            <line x1="51.5" y1="131.5" x2="57.6" y2="137.6" />
        </g>

        <!-- Minor dial ticks -->
        <g stroke-linecap="round" stroke="white" stroke-width="2">
            <line x1="110.793978087776" y1="111.849504498935" x2="109.698936832494" y2="118.763322883101" />
            <line x1="121.322172611871" y1="114.377100375634" x2="119.159053651247" y2="121.0344959897" />
            <line x1="131.325344482029" y1="118.520549831003" x2="128.147410983852" y2="124.757595500321" />
            <line x1="140.557182408181" y1="124.177827388129" x2="136.442685642133" y2="129.840946348753" />

            <line x1="155.822172611871" y1="139.442817591819" x2="150.159053651247" y2="143.557314357867" />
            <line x1="161.479450168997" y1="148.674655517971" x2="155.242404499679" y2="151.852589016148" />
            <line x1="165.622899624366" y1="158.677827388129" x2="158.9655040103" y2="160.840946348753" />
            <line x1="168.150495501065" y1="169.206021912224" x2="161.236677116899" y2="170.301063167506" />

            <line x1="168.150495501065" y1="190.793978087776" x2="161.236677116899" y2="189.698936832494" />
            <line x1="165.622899624366" y1="201.322172611871" x2="158.9655040103" y2="199.159053651247" />
            <line x1="161.479450168997" y1="211.325344482029" x2="155.242404499679" y2="208.147410983852" />
            <line x1="155.822172611871" y1="220.557182408181" x2="150.159053651247" y2="216.442685642133" />

            <line x1="140.557182408181" y1="235.822172611871" x2="136.442685642133" y2="230.159053651247" />
            <line x1="131.325344482029" y1="241.479450168997" x2="128.147410983852" y2="235.242404499679" />
            <line x1="121.322172611871" y1="245.622899624366" x2="119.159053651247" y2="238.9655040103" />
            <line x1="110.793978087776" y1="248.150495501064" x2="109.698936832494" y2="241.236677116899" />

            <line x1="89.2060219122241" y1="248.150495501065" x2="90.3010631675057" y2="241.236677116899" />
            <line x1="78.6778273881286" y1="245.622899624366" x2="80.8409463487533" y2="238.9655040103" />
            <line x1="68.6746555179713" y1="241.479450168997" x2="71.8525890161481" y2="235.242404499679" />
            <line x1="59.4428175918194" y1="235.822172611871" x2="63.5573143578667" y2="230.159053651247" />

            <line x1="44.1778273881286" y1="220.557182408181" x2="49.8409463487533" y2="216.442685642133" />
            <line x1="38.5205498310026" y1="211.325344482029" x2="44.7575955003212" y2="208.147410983852" />
            <line x1="34.3771003756344" y1="201.322172611871" x2="41.0344959897005" y2="199.159053651247" />
            <line x1="31.8495044989355" y1="190.793978087776" x2="38.7633228831015" y2="189.698936832494" />

            <line x1="31.8495044989355" y1="169.206021912224" x2="38.7633228831015" y2="170.301063167506" />
            <line x1="34.3771003756344" y1="158.677827388129" x2="41.0344959897005" y2="160.840946348753" />
            <line x1="38.5205498310026" y1="148.674655517971" x2="44.7575955003212" y2="151.852589016148" />
            <line x1="44.1778273881286" y1="139.442817591819" x2="49.8409463487533" y2="143.557314357867" />

            <line x1="59.4428175918193" y1="124.177827388129" x2="63.5573143578667" y2="129.840946348753" />
            <line x1="68.6746555179713" y1="118.520549831003" x2="71.8525890161481" y2="124.757595500321" />
            <line x1="78.6778273881286" y1="114.377100375634" x2="80.8409463487533" y2="121.0344959897" />
            <line x1="89.2060219122241" y1="111.849504498936" x2="90.3010631675057" y2="118.763322883101" />
        </g>
    </g>
    <style>
        text {
            font-family: Arial, sans-serif;
            font-size: 12px;
            text-anchor: middle;
            dominant-baseline: middle;
            user-select: none;
            fill: white;
            stroke: white;
            stroke-width: 0.5;
            font-weight: bold;
        }
    </style>
</svg>
