<svg width="200" height="275" viewBox="0 0 200 275" xmlns="http://www.w3.org/2000/svg" fill="none" stroke="black" stroke-width="4">
    <path d="
    M50 55 A50 50 0 0 1 150 55 L150 105 L130 95 L130 55 A30 30 0 0 0 70 55 L70 95 L50 105 Z
  " fill="white" stroke="black" fill-rule="evenodd" />

    <!-- Lock body -->
    <circle cx="100" cy="180" r="90" fill="white"/>

    <!-- Dial marker -->
    <polygon points="97.5,103.5 102.5,103.5 100,107" fill="black" stroke-width="1"/>

    <!-- Dial circles-->
    <circle cx="100" cy="180" r="70" fill="black" />
    <circle cx="100" cy="180" r="30" stroke="white" stroke-width="2"/>
    <text x="100" y="180">Quotiac</text>

    <!-- Dial ticks -->
    <g stroke-linecap="round" stroke="white">
        <!-- 0° -->
        <line x1="100" y1="112" x2="100" y2="121" />
        <!-- 90° -->
        <line x1="168" y1="180" x2="159" y2="180" />
        <!-- 180° -->
        <line x1="100" y1="248" x2="100" y2="239" />
        <!-- 270° -->
        <line x1="32" y1="180" x2="41" y2="180" />
        <!-- 45° -->
        <line x1="148.5" y1="131.5" x2="142.4" y2="137.6" />
        <!-- 135° -->
        <line x1="148.5" y1="228.5" x2="142.4" y2="222.4" />
        <!-- 225° -->
        <line x1="51.5" y1="228.5" x2="57.6" y2="222.4" />
        <!-- 315° -->
        <line x1="51.5" y1="131.5" x2="57.6" y2="137.6" />
    </g>

    <!-- Minor ticks
  <g stroke-linecap="round" stroke="white" stroke-width="2">
    <line x1="106.6" y1="112.4" x2="105.1" y2="118.3" />
  <line x1="112.9" y1="114.5" x2="110.2" y2="120.0" />
  <line x1="118.9" y1="117.8" x2="115.0" y2="122.9" />
  <line x1="124.6" y1="122.1" x2="119.7" y2="126.6" />

  <line x1="129.7" y1="127.3" x2="124.0" y2="130.4" />
  <line x1="134.1" y1="133.1" x2="127.6" y2="134.6" />
  <line x1="137.8" y1="139.4" x2="130.8" y2="139.4" />
  <line x1="140.5" y1="146.0" x2="133.2" y2="144.3" />

  <line x1="142.2" y1="152.9" x2="134.3" y2="149.5" />
  <line x1="142.9" y1="159.9" x2="134.4" y2="155.1" />
  <line x1="142.4" y1="166.9" x2="133.4" y2="160.8" />
  <line x1="140.9" y1="173.7" x2="131.4" y2="166.4" />

  <line x1="138.3" y1="180.0" x2="128.5" y2="171.7" />
  <line x1="134.8" y1="185.8" x2="124.8" y2="176.6" />
  <line x1="130.4" y1="191.1" x2="120.8" y2="181.1" />
  <line x1="125.1" y1="195.6" x2="116.1" y2="185.0" />

  <line x1="119.2" y1="199.3" x2="110.9" y2="188.2" />
  <line x1="112.9" y1="202.1" x2="105.3" y2="190.7" />
  <line x1="106.1" y1="204.0" x2="99.2" y2="192.3" />
  <line x1="99.1" y1="204.8" x2="93.0" y2="193.1" />

  <line x1="92.1" y1="204.5" x2="87.0" y2="192.9" />
  <line x1="85.3" y1="202.9" x2="81.2" y2="191.1" />
  <line x1="79.0" y1="200.3" x2="76.0" y2="187.9" />
  <line x1="73.2" y1="196.8" x2="71.3" y2="183.5" />

  <line x1="67.9" y1="192.5" x2="67.1" y2="178.0" />
  <line x1="63.5" y1="187.5" x2="64.0" y2="172.1" />
  <line x1="60.0" y1="182.0" x2="61.6" y2="165.5" />
  <line x1="57.5" y1="176.0" x2="60.1" y2="158.8" />

  <line x1="55.9" y1="169.6" x2="59.6" y2="152.0" />
  <line x1="55.4" y1="162.8" x2="60.0" y2="145.1" />
  <line x1="55.9" y1="155.8" x2="61.4" y2="138.4" />
  <line x1="57.5" y1="149.0" x2="63.7" y2="132.1" />
  </g> -->
    <style>
        text {
            font-family: Arial, sans-serif;
            font-size: 12px;
            text-anchor: middle;
            dominant-baseline: middle;
            user-select: none;
            fill: white;
            stroke: white;
            stroke-width: 0.5;
            font-weight: bold;
        }
    </style>
</svg>
